<svg xmlns="http://www.w3.org/2000/svg" version="1.1" xmlns:xlink="http://www.w3.org/1999/xlink" xmlns:svgjs="http://svgjs.dev/svgjs" viewBox="0 0 800 800" preserveAspectRatio="xMidYMid slice"><defs><pattern id="pppixelate-pattern" width="20" height="20" patternUnits="userSpaceOnUse" patternTransform="translate(18 5) scale(40) rotate(360)" shape-rendering="crispEdges">
    <rect width="1" height="1" x="3" y="1" fill="hsl(231, 100%, 64%)"></rect><rect width="1" height="1" x="4" y="1" fill="hsl(231, 100%, 64%)"></rect><rect width="1" height="1" x="5" y="1" fill="hsl(231, 100%, 64%)"></rect><rect width="1" height="1" x="6" y="1" fill="hsl(231, 100%, 64%)"></rect><rect width="1" height="1" x="12" y="1" fill="hsl(231, 100%, 64%)"></rect><rect width="1" height="1" x="13" y="1" fill="hsl(231, 100%, 64%)"></rect><rect width="1" height="1" x="14" y="1" fill="hsl(231, 100%, 64%)"></rect><rect width="1" height="1" x="15" y="1" fill="hsl(231, 100%, 64%)"></rect><rect width="1" height="1" x="2" y="2" fill="hsl(231, 100%, 64%)"></rect><rect width="1" height="1" x="7" y="2" fill="hsl(231, 100%, 64%)"></rect><rect width="1" height="1" x="11" y="2" fill="hsl(231, 100%, 64%)"></rect><rect width="1" height="1" x="16" y="2" fill="hsl(231, 100%, 64%)"></rect><rect width="1" height="1" x="2" y="3" fill="hsl(231, 100%, 64%)"></rect><rect width="1" height="1" x="7" y="3" fill="hsl(231, 100%, 64%)"></rect><rect width="1" height="1" x="11" y="3" fill="hsl(231, 100%, 64%)"></rect><rect width="1" height="1" x="16" y="3" fill="hsl(231, 100%, 64%)"></rect><rect width="1" height="1" x="2" y="4" fill="hsl(231, 100%, 64%)"></rect><rect width="1" height="1" x="3" y="4" fill="hsl(231, 100%, 64%)"></rect><rect width="1" height="1" x="4" y="4" fill="hsl(231, 100%, 64%)"></rect><rect width="1" height="1" x="5" y="4" fill="hsl(231, 100%, 64%)"></rect><rect width="1" height="1" x="6" y="4" fill="hsl(231, 100%, 64%)"></rect><rect width="1" height="1" x="11" y="4" fill="hsl(231, 100%, 64%)"></rect><rect width="1" height="1" x="16" y="4" fill="hsl(231, 100%, 64%)"></rect><rect width="1" height="1" x="2" y="5" fill="hsl(231, 100%, 64%)"></rect><rect width="1" height="1" x="11" y="5" fill="hsl(231, 100%, 64%)"></rect><rect width="1" height="1" x="16" y="5" fill="hsl(231, 100%, 64%)"></rect><rect width="1" height="1" x="2" y="6" fill="hsl(231, 100%, 64%)"></rect><rect width="1" height="1" x="7" y="6" fill="hsl(231, 100%, 64%)"></rect><rect width="1" height="1" x="11" y="6" fill="hsl(231, 100%, 64%)"></rect><rect width="1" height="1" x="16" y="6" fill="hsl(231, 100%, 64%)"></rect><rect width="1" height="1" x="2" y="7" fill="hsl(231, 100%, 64%)"></rect><rect width="1" height="1" x="7" y="7" fill="hsl(231, 100%, 64%)"></rect><rect width="1" height="1" x="11" y="7" fill="hsl(231, 100%, 64%)"></rect><rect width="1" height="1" x="16" y="7" fill="hsl(231, 100%, 64%)"></rect><rect width="1" height="1" x="3" y="8" fill="hsl(231, 100%, 64%)"></rect><rect width="1" height="1" x="4" y="8" fill="hsl(231, 100%, 64%)"></rect><rect width="1" height="1" x="5" y="8" fill="hsl(231, 100%, 64%)"></rect><rect width="1" height="1" x="6" y="8" fill="hsl(231, 100%, 64%)"></rect><rect width="1" height="1" x="11" y="8" fill="hsl(231, 100%, 64%)"></rect><rect width="1" height="1" x="16" y="8" fill="hsl(231, 100%, 64%)"></rect><rect width="1" height="1" x="3" y="11" fill="hsl(231, 100%, 64%)"></rect><rect width="1" height="1" x="4" y="11" fill="hsl(231, 100%, 64%)"></rect><rect width="1" height="1" x="5" y="11" fill="hsl(231, 100%, 64%)"></rect><rect width="1" height="1" x="6" y="11" fill="hsl(231, 100%, 64%)"></rect><rect width="1" height="1" x="12" y="11" fill="hsl(231, 100%, 64%)"></rect><rect width="1" height="1" x="13" y="11" fill="hsl(231, 100%, 64%)"></rect><rect width="1" height="1" x="14" y="11" fill="hsl(231, 100%, 64%)"></rect><rect width="1" height="1" x="15" y="11" fill="hsl(231, 100%, 64%)"></rect><rect width="1" height="1" x="2" y="12" fill="hsl(231, 100%, 64%)"></rect><rect width="1" height="1" x="7" y="12" fill="hsl(231, 100%, 64%)"></rect><rect width="1" height="1" x="11" y="12" fill="hsl(231, 100%, 64%)"></rect><rect width="1" height="1" x="16" y="12" fill="hsl(231, 100%, 64%)"></rect><rect width="1" height="1" x="2" y="13" fill="hsl(231, 100%, 64%)"></rect><rect width="1" height="1" x="7" y="13" fill="hsl(231, 100%, 64%)"></rect><rect width="1" height="1" x="11" y="13" fill="hsl(231, 100%, 64%)"></rect><rect width="1" height="1" x="16" y="13" fill="hsl(231, 100%, 64%)"></rect><rect width="1" height="1" x="2" y="14" fill="hsl(231, 100%, 64%)"></rect><rect width="1" height="1" x="7" y="14" fill="hsl(231, 100%, 64%)"></rect><rect width="1" height="1" x="11" y="14" fill="hsl(231, 100%, 64%)"></rect><rect width="1" height="1" x="12" y="14" fill="hsl(231, 100%, 64%)"></rect><rect width="1" height="1" x="13" y="14" fill="hsl(231, 100%, 64%)"></rect><rect width="1" height="1" x="14" y="14" fill="hsl(231, 100%, 64%)"></rect><rect width="1" height="1" x="15" y="14" fill="hsl(231, 100%, 64%)"></rect><rect width="1" height="1" x="2" y="15" fill="hsl(231, 100%, 64%)"></rect><rect width="1" height="1" x="7" y="15" fill="hsl(231, 100%, 64%)"></rect><rect width="1" height="1" x="11" y="15" fill="hsl(231, 100%, 64%)"></rect><rect width="1" height="1" x="2" y="16" fill="hsl(231, 100%, 64%)"></rect><rect width="1" height="1" x="7" y="16" fill="hsl(231, 100%, 64%)"></rect><rect width="1" height="1" x="11" y="16" fill="hsl(231, 100%, 64%)"></rect><rect width="1" height="1" x="16" y="16" fill="hsl(231, 100%, 64%)"></rect><rect width="1" height="1" x="2" y="17" fill="hsl(231, 100%, 64%)"></rect><rect width="1" height="1" x="7" y="17" fill="hsl(231, 100%, 64%)"></rect><rect width="1" height="1" x="11" y="17" fill="hsl(231, 100%, 64%)"></rect><rect width="1" height="1" x="16" y="17" fill="hsl(231, 100%, 64%)"></rect><rect width="1" height="1" x="2" y="18" fill="hsl(231, 100%, 64%)"></rect><rect width="1" height="1" x="7" y="18" fill="hsl(231, 100%, 64%)"></rect><rect width="1" height="1" x="12" y="18" fill="hsl(231, 100%, 64%)"></rect><rect width="1" height="1" x="13" y="18" fill="hsl(231, 100%, 64%)"></rect><rect width="1" height="1" x="14" y="18" fill="hsl(231, 100%, 64%)"></rect><rect width="1" height="1" x="15" y="18" fill="hsl(231, 100%, 64%)"></rect>
  </pattern></defs><rect width="100%" height="100%" fill="url(#pppixelate-pattern)"></rect></svg>